<?xml version="1.0" standalone="no"?><svg xmlns="http://www.w3.org/2000/svg" viewBox="0 0 1440 320"><path fill="#000b76" fill-opacity="0.2" d="M0,32L34.3,32C68.6,32,137,32,206,64C274.3,96,343,160,411,160C480,160,549,96,617,101.3C685.7,107,754,181,823,224C891.4,267,960,277,1029,261.3C1097.1,245,1166,203,1234,181.3C1302.9,160,1371,160,1406,160L1440,160L1440,0L1405.7,0C1371.4,0,1303,0,1234,0C1165.7,0,1097,0,1029,0C960,0,891,0,823,0C754.3,0,686,0,617,0C548.6,0,480,0,411,0C342.9,0,274,0,206,0C137.1,0,69,0,34,0L0,0Z"></path></svg>