<?xml version="1.0" standalone="no"?>
<svg viewBox="0 0 200 200" xmlns="http://www.w3.org/2000/svg">
  <path fill="#a6b1e1" d="M43.3,-76.1C56.8,-67.3,68.9,-57,77.7,-44.1C86.5,-31.2,92,-15.6,92,0C92,15.6,86.5,31.2,78.6,45.5C70.6,59.8,60.1,72.9,46.6,80C33.1,87.2,16.5,88.5,0.3,87.9C-15.9,87.4,-31.8,84.9,-45.2,77.7C-58.6,70.5,-69.6,58.5,-78.1,44.8C-86.6,31,-92.6,15.5,-92.6,0C-92.6,-15.5,-86.6,-31,-78.3,-45.2C-70.1,-59.4,-59.6,-72.3,-46.2,-81.2C-32.8,-90.1,-16.4,-95,-0.7,-93.7C14.9,-92.4,29.9,-85,43.3,-76.1Z" transform="translate(100 100)" />
</svg>
