<?xml version="1.0" standalone="no"?><svg xmlns="http://www.w3.org/2000/svg" viewBox="0 0 1440 320"><path fill="#4f8a8b" fill-opacity="0.2" d="M0,320L30,282.7C60,245,120,171,180,138.7C240,107,300,117,360,149.3C420,181,480,235,540,250.7C600,267,660,245,720,197.3C780,149,840,75,900,37.3C960,0,1020,0,1080,37.3C1140,75,1200,149,1260,160C1320,171,1380,117,1410,90.7L1440,64L1440,0L1410,0C1380,0,1320,0,1260,0C1200,0,1140,0,1080,0C1020,0,960,0,900,0C840,0,780,0,720,0C660,0,600,0,540,0C480,0,420,0,360,0C300,0,240,0,180,0C120,0,60,0,30,0L0,0Z"></path></svg>