<?xml version="1.0" standalone="no"?>
<svg viewBox="0 0 200 200" xmlns="http://www.w3.org/2000/svg">
  <path fill="#4A529D" d="M41,-68.9C53.1,-64,62.9,-53,71.8,-40.5C80.8,-28,88.9,-14,89.8,0.5C90.8,15.1,84.5,30.1,76.3,43.8C68,57.5,57.7,69.7,44.6,74.2C31.6,78.6,15.8,75.2,0.8,73.7C-14.1,72.3,-28.2,72.7,-40.7,68C-53.2,63.3,-64.2,53.3,-68.9,41.1C-73.7,28.9,-72.2,14.5,-71.8,0.2C-71.4,-14,-72,-28,-66.2,-38.3C-60.4,-48.7,-48.1,-55.4,-36,-60.2C-23.9,-65.1,-12,-68.1,1.2,-70.2C14.4,-72.4,28.9,-73.7,41,-68.9Z" transform="translate(100 100)" />
</svg>
